
<svg xmlns="http://www.w3.org/2000/svg" xmlns:xlink="http://www.w3.org/1999/xlink" width="1200" height="1200" viewBox="0 0 1200 1200"><g><g transform="translate(600 600) scale(0.69 0.69) rotate(0) translate(-600 -600)" style="fill:#1C6E8C"><svg fill="#1C6E8C" xmlns:x="http://ns.adobe.com/Extensibility/1.0/" xmlns:i="http://ns.adobe.com/AdobeIllustrator/10.0/" xmlns:graph="http://ns.adobe.com/Graphs/1.0/" xmlns="http://www.w3.org/2000/svg" xmlns:xlink="http://www.w3.org/1999/xlink" version="1.1" x="0px" y="0px" viewBox="0 0 90 58" enable-background="new 0 0 90 58" xml:space="preserve"><g><g i:extraneous="self"><path d="M90,19.365l-9.75-3.343V10.9L50.197,0L11.75,8.85v5.404L0,17.314v9.397l5.438,2.344L4.15,29.36v10.083L44.319,58h1.854    L89.85,38.972v-9.314l-1.287-0.408L90,28.683V19.365z M67.845,28.538v7.456L46.4,44.443v-8.378L67.845,28.538z M32.108,31.247    v7.841l-19.191-8.277v-7.027L32.108,31.247z M57.77,18.205l-13.957-5.353l9.207-2.589l13.324,5.139L57.77,18.205z M67.646,16.363    v6.699l-9.551,3.323v-6.899L67.646,16.363z M54.791,19.179l-9.427,3.082L30.913,16.48l9.717-2.733L54.791,19.179z M56.122,20.131    v6.942L46.4,30.474v-7.147L56.122,20.131z M44.4,23.286v7.15l-15.193-5.952v-7.267L44.4,23.286z M78.922,19.139l-9.303,3.237    v-6.658l9.303-3.042V19.139z M78.271,11.503l-8.955,2.927L56.195,9.37l9.094-2.558L78.271,11.503z M50.153,1.344l11.914,4.305    l-8.969,2.527L40.868,3.459L50.153,1.344z M37.415,4.245L49.926,9.07l-9.209,2.594L27.348,6.538L37.415,4.245z M23.886,7.327    l13.649,5.235l-9.634,2.714L13.78,9.628L23.886,7.327z M13.079,10.767l14.156,5.663v7.28l-14.156-5.555V10.767z M1.324,25.811    v-6.538l9.608,3.737v6.944L1.324,25.811z M24.003,40.132v6.295L6.135,38.173v-5.798l18,7.757H24.003z M44.4,55.787l-18.411-8.442    v-6.414L44.4,48.809V55.787z M44.4,44.397l-10.304-4.453v-7.924L44.4,36.035V44.397z M57.091,51.134L46.4,55.827v-6.991    l10.69-4.206V51.134z M76.944,42.541l-17.867,7.734v-6.416l17.867-6.934V42.541z M88.2,37.669l-9.27,4.012v-5.525l9.27-3.598    V37.669z M88.677,27.783l-18.848,7.428v-7.37l18.848-6.617V27.783z"></path></g></g></svg></g></g></svg>