
<svg xmlns="http://www.w3.org/2000/svg" xmlns:xlink="http://www.w3.org/1999/xlink" width="1200" height="1200" viewBox="0 0 1200 1200"><g><g transform="translate(600 600) scale(0.69 0.69) rotate(0) translate(-600 -600)" style="fill:#4c56fd"><svg fill="#4c56fd" xmlns="http://www.w3.org/2000/svg" xmlns:xlink="http://www.w3.org/1999/xlink" version="1.1" x="0px" y="0px" viewBox="0 0 50 50" style="enable-background:new 0 0 50 50;" xml:space="preserve"><style type="text/css">
	.st0{fill:none;stroke:#4c56fd;stroke-width:2;stroke-miterlimit:10;}
	.st1{fill:none;stroke:#4c56fd;stroke-width:2;stroke-miterlimit:10;stroke-dasharray:2,3;}
	.st2{fill:none;stroke:#4c56fd;stroke-width:2;stroke-linejoin:round;stroke-miterlimit:10;}
	.st3{fill:none;stroke:#4c56fd;stroke-width:2;stroke-miterlimit:10;stroke-dasharray:2,2;}
	.st4{fill:none;stroke:#4c56fd;stroke-width:2;stroke-linejoin:round;stroke-miterlimit:10;stroke-dasharray:2,2;}
	.st5{fill:none;stroke:#4c56fd;stroke-width:2;stroke-miterlimit:10;stroke-dasharray:1.7143,1.7143;}
	.st6{fill:none;stroke:#4c56fd;stroke-width:2;stroke-linecap:round;stroke-miterlimit:10;}
	.st7{fill:none;stroke:#4c56fd;stroke-width:2;stroke-linecap:round;stroke-linejoin:round;stroke-miterlimit:10;}
</style><g><rect x="2" y="4" class="st0" width="46" height="35"></rect><line class="st0" x1="17" y1="39" x2="17" y2="46"></line><line class="st0" x1="33" y1="39" x2="33" y2="46"></line><line class="st0" x1="12" y1="46" x2="38" y2="46"></line><line class="st0" x1="48" y1="33" x2="2" y2="33"></line><line class="st0" x1="44" y1="8" x2="31" y2="8"></line><line class="st0" x1="29" y1="8" x2="24" y2="8"></line><line class="st0" x1="22" y1="8" x2="20" y2="8"></line><line class="st0" x1="18" y1="8" x2="16" y2="8"></line><line class="st0" x1="44" y1="23" x2="32" y2="23"></line><line class="st0" x1="30" y1="23" x2="28" y2="23"></line><line class="st0" x1="26" y1="23" x2="24" y2="23"></line><line class="st0" x1="44" y1="18" x2="34" y2="18"></line><line class="st0" x1="32" y1="18" x2="20" y2="18"></line><line class="st0" x1="27" y1="13" x2="23" y2="13"></line><line class="st0" x1="44" y1="13" x2="29" y2="13"></line><line class="st0" x1="21" y1="13" x2="6" y2="13"></line><line class="st0" x1="25" y1="28" x2="44" y2="28"></line><g><polyline class="st0" points="17.5,21.5 21,25 17.5,28.5   "></polyline><polyline class="st0" points="9.5,21.5 6,25 9.5,28.5   "></polyline><line class="st0" x1="11.5" y1="30" x2="15.5" y2="20"></line></g></g></svg></g></g></svg>