
<svg xmlns="http://www.w3.org/2000/svg" xmlns:xlink="http://www.w3.org/1999/xlink" width="1200" height="1200" viewBox="0 0 1200 1200"><g><g transform="translate(600 600) scale(0.69 0.69) rotate(0) translate(-600 -600)" style="fill:#fd4ccb"><svg fill="#fd4ccb" xmlns="http://www.w3.org/2000/svg" data-name="Layer 1" viewBox="0 0 100 100" x="0px" y="0px"><title>29</title><g data-name="Group"><path data-name="Compound Path" d="M2.1,50c0,6.9,7.6,12.8,19.6,16.5-2.8,12.3-1.5,22,4.3,25.4a9.9,9.9,0,0,0,5.1,1.3,14.6,14.6,0,0,0,3.8-.5C39.5,91.4,44.8,88,50,83c5.2,5,10.5,8.4,15.1,9.6a14.6,14.6,0,0,0,3.8.5,9.9,9.9,0,0,0,5.1-1.3c5.9-3.4,7.2-13.1,4.3-25.4C90.2,62.8,97.9,56.9,97.9,50S90.2,37.2,78.3,33.5c2.8-12.3,1.5-22-4.3-25.4-2.5-1.4-5.4-1.7-8.8-.8S55.2,12,50,17c-5.2-5-10.5-8.4-15.1-9.6s-6.4-.6-8.8.8c-5.9,3.4-7.2,13.1-4.3,25.4C9.8,37.2,2.1,43.1,2.1,50ZM33.9,88.8a7.4,7.4,0,0,1-5.8-.4c-4.5-2.6-4.8-10.9-2.4-20.9a93.3,93.3,0,0,0,13,2.2,96.5,96.5,0,0,0,8.5,10.4C42.5,84.7,37.8,87.7,33.9,88.8Zm2.2-47c1.6-2.7,3.2-5.3,4.9-7.8,2.9-.2,5.9-.4,9.1-.4s6.2.1,9.1.4c1.7,2.5,3.3,5.1,4.9,7.8s2.9,5.4,4.2,8.2c-1.3,2.8-2.7,5.5-4.2,8.2s-3.2,5.3-4.9,7.8c-2.9.2-5.9.4-9.1.4s-6.2-.1-9.1-.4c-1.7-2.5-3.3-5.1-4.9-7.8s-2.9-5.4-4.2-8.2C33.1,47.2,34.5,44.5,36.1,41.8Zm-6.3,3.3c-1.2-3-2.2-6-3.1-8.9a86.2,86.2,0,0,1,9.1-1.7q-1.6,2.6-3.2,5.3C31.6,41.6,30.6,43.4,29.8,45.1ZM50,22.7a90.3,90.3,0,0,1,6,7.2l-6-.2-6,.2A90.3,90.3,0,0,1,50,22.7ZM64.2,34.6a86.2,86.2,0,0,1,9.1,1.7c-.8,2.9-1.9,5.9-3.1,8.9-.9-1.7-1.8-3.5-2.8-5.3S65.3,36.3,64.2,34.6Zm6,20.3c1.2,3,2.2,6,3.1,8.9a86.2,86.2,0,0,1-9.1,1.7q1.6-2.6,3.2-5.3C68.4,58.4,69.4,56.6,70.2,54.9ZM50,77.3a90.3,90.3,0,0,1-6-7.2l6,.2,6-.2A90.3,90.3,0,0,1,50,77.3ZM32.6,60.2q1.6,2.7,3.2,5.3a86.2,86.2,0,0,1-9.1-1.7c.8-2.9,1.9-5.9,3.1-8.9C30.6,56.6,31.6,58.4,32.6,60.2ZM71.9,88.4a7.4,7.4,0,0,1-5.8.4c-4-1.1-8.6-4.1-13.3-8.6a96.5,96.5,0,0,0,8.5-10.4,93.3,93.3,0,0,0,13-2.2C76.7,77.5,76.4,85.8,71.9,88.4ZM93.9,50c0,4.7-6.1,9.5-16.6,12.7A95.7,95.7,0,0,0,72.6,50a95.7,95.7,0,0,0,4.7-12.7C87.7,40.5,93.9,45.3,93.9,50ZM66.1,11.2a10.5,10.5,0,0,1,2.7-.4,6,6,0,0,1,3.1.8c4.5,2.6,4.8,10.9,2.4,20.9a93.3,93.3,0,0,0-13-2.2,96.5,96.5,0,0,0-8.5-10.4C57.5,15.3,62.2,12.3,66.1,11.2Zm-38,.4a6,6,0,0,1,3.1-.8,10.5,10.5,0,0,1,2.7.4c4,1.1,8.6,4.1,13.3,8.6a96.5,96.5,0,0,0-8.5,10.4,93.3,93.3,0,0,0-13,2.2C23.3,22.5,23.6,14.2,28.1,11.6ZM22.7,37.3A95.7,95.7,0,0,0,27.4,50a95.7,95.7,0,0,0-4.7,12.7C12.3,59.5,6.1,54.7,6.1,50S12.3,40.5,22.7,37.3Z"></path><path data-name="Compound Path" d="M50,62.1c6,0,12-1.7,12-5.5v-13h0c0-3.8-6-5.5-12-5.5s-12,1.7-12,5.5h0v13C38,60.4,44,62.1,50,62.1Zm8-12.4c-.6.6-3.4,1.7-8,1.7s-7.4-1.1-8-1.7v-2a23.7,23.7,0,0,0,8,1.2,23.7,23.7,0,0,0,8-1.2ZM42,56.4V54.1a23.7,23.7,0,0,0,8,1.2,23.7,23.7,0,0,0,8-1.2v2.3c-.6.6-3.4,1.7-8,1.7S42.6,57,42,56.4Zm8-14.5c4,0,6.7.8,7.7,1.5-1,.6-3.7,1.5-7.7,1.5s-6.7-.8-7.7-1.5C43.3,42.8,46,41.9,50,41.9Z"></path></g></svg></g></g></svg>