
<svg xmlns="http://www.w3.org/2000/svg" xmlns:xlink="http://www.w3.org/1999/xlink" width="1200" height="1200" viewBox="0 0 1200 1200"><g><circle stroke="none" fill="#2b2e3c" r="48%" cx="50%" cy="50%"></circle><g transform="translate(600 600) scale(0.69 0.69) rotate(0) translate(-600 -600)" style="fill:#bff4ff"><svg fill="#bff4ff" xmlns="http://www.w3.org/2000/svg" xmlns:xlink="http://www.w3.org/1999/xlink" version="1.1" x="0px" y="0px" viewBox="0, 0, 83, 90"><g transform="translate(-9, -5)"><path d="M66,5 C66.552,5 67,5.448 67,6 L67,10 L91,10 C91.552,10 92,10.448 92,11 L92,54 C92,54.552 91.552,55 91,55 L67,55 L67,68.627 L79.756,83.345 C80.118,83.762 80.072,84.394 79.655,84.756 C79.238,85.117 78.606,85.072 78.244,84.655 L67,71.681 L67,89 C67,89.552 66.552,90 66,90 C65.448,90 65,89.552 65,89 L65,71.68 L53.756,84.655 C53.394,85.072 52.763,85.117 52.345,84.756 C51.928,84.394 51.883,83.762 52.244,83.345 L65,68.627 L65,55 L41,55 C40.448,55 40,54.552 40,54 L40,49.625 C39.244,50.588 38.277,51.392 37.048,51.561 C36.765,51.561 36.482,51.521 36.201,51.445 C34.382,50.951 32.68,48.982 30.968,45.972 L30.624,45.327 L31.33,61.566 L34.102,93.914 C34.153,94.498 33.692,95 33.106,95 L27.561,95 C27.042,95 26.61,94.604 26.565,94.088 L23.872,63.576 L23.843,63.576 L20.727,94.101 C20.675,94.612 20.245,95 19.732,95 L14.621,95 C14.035,95 13.575,94.498 13.625,93.914 L16.394,61.622 L16.668,52.294 L14.676,61.855 C14.579,62.319 14.171,62.652 13.697,62.651 L10,62.651 C9.412,62.652 8.951,62.147 9.004,61.562 C9.014,61.452 9.041,61.188 9.091,60.717 C9.175,59.939 9.297,58.852 9.466,57.404 C9.946,53.272 10.698,47.082 11.781,38.421 C12.461,32.328 15.671,32.067 21.091,32 L28.39,32 C32.53,32 34.123,33.953 35.965,39.065 C35.992,39.141 35.992,39.141 36.019,39.216 C36.64,40.896 36.307,40.076 37.016,41.677 C38.448,40.019 37.739,40.849 39.142,39.188 C39.202,39.117 39.202,39.117 39.261,39.046 L40.026,38.129 L40,38 L40,11 C40,10.448 40.448,10 41,10 L65,10 L65,6 C65,5.448 65.448,5 66,5 z M28.39,34 L21.091,34 C14.962,34 14.278,34.565 13.765,38.669 C12.683,47.325 11.932,53.51 11.452,57.635 C11.335,58.64 11.22,59.646 11.11,60.651 L12.884,60.651 L17.021,40.796 C17.27,39.601 19.035,39.809 19,41.029 L18.39,61.737 L15.711,93 L18.828,93 L21.945,62.474 C21.997,61.964 22.427,61.576 22.939,61.576 L24.788,61.576 C25.306,61.576 25.739,61.972 25.784,62.488 L28.476,93 L32.017,93 L29.334,61.695 L28.41,40.437 C28.361,39.306 29.934,38.977 30.342,40.033 C30.37,40.106 30.427,40.248 30.51,40.449 C30.649,40.788 30.811,41.167 30.994,41.574 C31.514,42.738 32.091,43.902 32.706,44.983 C34.161,47.54 35.605,49.21 36.725,49.514 C36.839,49.546 36.946,49.561 37.048,49.561 C37.411,49.561 38.72,48.221 40.263,46.044 C40.703,45.424 41.161,44.743 41.634,44.01 C42.473,42.712 43.316,41.317 44.121,39.923 C44.62,39.053 44.392,39.454 44.805,38.719 L43.952,37.866 C43.52,37.435 43.723,37.637 43.345,37.259 L43.037,37.633 C42.278,38.552 41.514,39.472 40.794,40.331 L40.674,40.473 C39.12,42.324 38.018,43.597 37.51,44.105 C37.064,44.551 36.321,44.477 35.971,43.952 C35.296,42.939 34.897,42.004 34.137,39.893 L34.083,39.743 C32.502,35.353 31.398,34 28.39,34 L28.39,34 z M90,12 L42,12 L42,35.746 L42.224,35.474 C42.356,35.314 42.45,35.2 42.499,35.139 C42.874,34.682 43.562,34.647 43.98,35.066 L46.753,37.838 C47.066,38.152 47.136,38.633 46.924,39.023 C46.872,39.12 46.773,39.299 46.634,39.549 C46.402,39.964 46.141,40.426 45.854,40.923 C45.033,42.344 44.173,43.766 43.314,45.096 C42.402,46.48 42.841,45.83 42,47.048 L42,53 L90,53 L90,12 z M76.374,22.535 L78.3,23.077 L77.759,25 L79.836,25 L80.225,23.618 L82.15,24.16 L81.914,25 L83.992,25 L84.076,24.701 L85.271,25.037 L85.266,25.054 C85.782,25.112 85.919,25.597 86,26 L86,48 C86,48.552 85.552,49 85,49 L63,49 C62.448,49 62,48.552 62,48 L62,47.303 L61.7,46.852 L62,46.652 L62,44.248 L60.59,45.188 L59.481,43.524 L61.145,42.414 L62,43.697 L62,31.3 L61.841,31.176 L62,30.972 L62,26 C62,25.448 62.448,25 63,25 L77.751,25 L75.833,24.46 L76.374,22.535 z M84,27 L64,27 L64,30.325 L64.648,30.831 L64,31.66 L64,47 L82.096,47 L80.753,45.951 L81.984,44.375 L83.561,45.606 L82.472,47 L84,47 L84,27 z M78.832,41.912 L80.408,43.144 L79.177,44.72 L77.601,43.488 L78.832,41.912 z M75.68,39.45 L77.256,40.681 L76.025,42.257 L74.449,41.026 L75.68,39.45 z M72.528,36.987 L74.104,38.219 L72.873,39.795 L71.297,38.563 L72.528,36.987 z M69.376,34.525 L70.952,35.756 L69.721,37.332 L68.145,36.101 L69.376,34.525 z M66.224,32.062 L67.8,33.293 L66.569,34.869 L64.993,33.638 L66.224,32.062 z M58.926,39.086 L60.035,40.75 L58.371,41.86 L57.262,40.196 L58.926,39.086 z M56.707,35.758 L57.817,37.422 L56.153,38.532 L55.043,36.867 L56.707,35.758 z M54.489,32.43 L55.598,34.094 L53.934,35.203 L52.824,33.539 L54.489,32.43 z M52.27,29.102 L53.379,30.766 L51.715,31.875 L50.606,30.211 L52.27,29.102 z M59.92,27.137 L61.496,28.368 L60.265,29.944 L58.689,28.713 L59.92,27.137 z M50.051,25.773 L51.16,27.438 L49.496,28.547 L48.387,26.883 L50.051,25.773 z M56.768,24.674 L58.344,25.906 L57.113,27.482 L55.537,26.25 L56.768,24.674 z M53,16 L53.266,16.054 L53.271,16.037 L55.196,16.579 L54.655,18.504 L54,18.32 L54,22.512 L55.192,23.443 L53.961,25.019 L52.656,24 L48.869,24 L48.942,24.109 L47.277,25.219 L46.168,23.555 L46.214,23.524 C45.985,23.296 46.091,23.452 46,23 L46,17 C46,16.448 46.448,16 47,16 L53,16 z M52,18 L48,18 L48,22 L52,22 L52,18 z M72.524,21.452 L74.449,21.994 L73.908,23.919 L71.982,23.377 L72.524,21.452 z M68.673,20.369 L70.599,20.91 L70.057,22.836 L68.132,22.294 L68.673,20.369 z M64.823,19.286 L66.748,19.828 L66.206,21.753 L64.281,21.212 L64.823,19.286 z M60.972,18.203 L62.897,18.745 L62.356,20.67 L60.431,20.128 L60.972,18.203 z M57.121,17.12 L59.047,17.662 L58.505,19.587 L56.58,19.045 L57.121,17.12 z" fill="#bff4ff"></path><path d="M23.862,18 L23.862,18.035 C27.251,18.344 28.779,21.505 29.046,24.522 C29.046,28.073 26.795,31.044 23.862,31.044 C20.929,31.044 18.678,28.073 18.678,24.522 C18.763,21.496 20.326,18.447 23.579,18.036 L23.579,18 L23.862,18 z M23.722,20.02 C21.51,20.29 20.816,22.632 20.678,24.522 C20.678,27.07 22.173,29.044 23.862,29.044 C25.55,29.044 27.046,27.07 27.046,24.522 C26.969,22.501 25.908,20.33 23.722,20.02 z" fill="#bff4ff"></path></g></svg></g></g></svg>