
<svg xmlns="http://www.w3.org/2000/svg" xmlns:xlink="http://www.w3.org/1999/xlink" width="1200" height="1200" viewBox="0 0 1200 1200"><g><g transform="translate(600 600) scale(0.69 0.69) rotate(0) translate(-600 -600)" style="fill:#A8C256"><svg fill="#A8C256" xmlns="http://www.w3.org/2000/svg" xmlns:xlink="http://www.w3.org/1999/xlink" version="1.1" x="0px" y="0px" viewBox="0 0 100 100" enable-background="new 0 0 100 100" xml:space="preserve"><path d="M37.474,59.198l-8.456-8.388c-1.519-1.505-1.53-3.958-0.022-5.476c1.503-1.515,3.957-1.525,5.474-0.021l8.454,8.388  c1.517,1.505,1.528,3.957,0.026,5.475C41.443,60.695,38.99,60.701,37.474,59.198L37.474,59.198z"></path><path d="M30.772,65.954l-9.728-9.65c-1.517-1.505-1.526-3.955-0.02-5.475c1.503-1.514,3.956-1.529,5.474-0.021l9.726,9.646  c1.517,1.508,1.525,3.961,0.025,5.474C34.742,67.45,32.288,67.456,30.772,65.954L30.772,65.954z"></path><path d="M24.072,72.706l-5.917-5.87c-1.518-1.505-1.529-3.954-0.023-5.473c1.505-1.519,3.959-1.527,5.475-0.022l5.917,5.869  c1.517,1.505,1.528,3.959,0.022,5.475C28.042,74.203,25.591,74.21,24.072,72.706L24.072,72.706z"></path><polygon points="54.605,30.046 44.719,40.062 57.472,42.872 62.527,37.726 "></polygon><path d="M16.656,68.522l-7.668,7.634c-2.122,2.138-2.108,5.59,0.032,7.713c2.138,2.125,5.592,2.108,7.714-0.028l7.67-7.632  L16.656,68.522z"></path><rect x="42.863" y="15.33" transform="matrix(0.7099 0.7043 -0.7043 0.7099 36.9882 -39.817)" width="47.935" height="19.327"></rect><path d="M28.088,76.774l7.769,7.706c0,0,2.417,2.108,5.034,2.857c2.344,0.672,5.056-0.301,5.056-0.301l11.988,11.891h32.604  l-28.53-27.483l0.703-12.535c0.033-0.602-0.076-1.197-0.317-1.748c-5.244-11.878-5.241-11.875-7.123-12.222L43.66,42.485  c-2.061-0.435-4.077,0.881-4.512,2.938c-0.434,2.054,0.883,4.076,2.937,4.51l6.995,1.476c-3.417,5.017-8.225,13.651-6.219,20.238  c2.486,8.163,7.176,10.096,7.176,10.096l-1.523,1.534c0,0-4.164-2.759-6.251-7.014c-2.607-5.3-2.471-11.284-2.471-11.284  L28.088,76.774z"></path></svg></g></g></svg>