
<svg xmlns="http://www.w3.org/2000/svg" xmlns:xlink="http://www.w3.org/1999/xlink" width="1200" height="1200" viewBox="0 0 1200 1200"><g><g transform="translate(600 600) scale(0.69 0.69) rotate(0) translate(-600 -600)" style="fill:#559ba0"><svg fill="#559ba0" xmlns="http://www.w3.org/2000/svg" xmlns:xlink="http://www.w3.org/1999/xlink" version="1.1" x="0px" y="0px" viewBox="0 0 100 100" enable-background="new 0 0 100 100" xml:space="preserve"><g><path d="M44.7,55.3c-2.9-2.9-2.9-7.7,0.1-10.6c2.9-2.9,7.7-2.9,10.6,0.1c2.9,2.9,2.9,7.7-0.1,10.6C52.3,58.2,47.6,58.2,44.7,55.3z    M38.8,33c2.3-1.5,4.8-2.5,7.4-3l0-3.8c0-0.9,0.8-1.7,1.7-1.7l4.6,0c0.9,0,1.7,0.8,1.7,1.7l0,3.8c2.6,0.5,5.1,1.5,7.3,3.1l2.7-2.7   c0.7-0.7,1.7-0.6,2.4,0l3.2,3.2c0.7,0.7,0.6,1.7,0,2.4L67,38.8c1.5,2.3,2.5,4.8,3,7.4l3.8,0c0.9,0,1.7,0.8,1.7,1.7l0,4.6   c0,0.9-0.8,1.7-1.7,1.7l-3.8,0c-0.5,2.6-1.5,5.1-3.1,7.3l2.7,2.7c0.7,0.7,0.6,1.7,0,2.4l-3.2,3.2c-0.7,0.7-1.7,0.6-2.4,0L61.2,67   c-2.3,1.5-4.8,2.5-7.4,3l0,3.8c0,0.9-0.8,1.7-1.7,1.7l-4.6,0c-0.9,0-1.7-0.8-1.7-1.7l0-3.8c-2.6-0.5-5.1-1.5-7.3-3.1l-2.7,2.7   c-0.7,0.7-1.7,0.6-2.4,0l-3.2-3.2c-0.7-0.7-0.6-1.7,0-2.4l2.7-2.7c-1.5-2.3-2.5-4.8-3-7.4l-3.8,0c-0.9,0-1.7-0.8-1.7-1.7l0-4.6   c0-0.9,0.8-1.7,1.7-1.7l3.8,0c0.5-2.6,1.5-5.1,3.1-7.3l-2.7-2.7c-0.7-0.7-0.6-1.7,0-2.4l3.2-3.2c0.7-0.7,1.7-0.6,2.4,0L38.8,33z    M41.7,41.6C37,46.2,37,53.7,41.6,58.3c4.6,4.6,12.1,4.7,16.8,0.1c4.6-4.6,4.7-12.1,0.1-16.8C53.8,37,46.3,37,41.7,41.6z    M60.7,27.8c-0.2,0-0.5,0-0.7,0h-2.4V15.6c0-4.7,3.8-8.5,8.5-8.5h2.6c0.7-2.8,3.3-4.9,6.3-4.9c3.6,0,6.5,2.9,6.5,6.5   c0,3.6-2.9,6.5-6.5,6.5c-3,0-5.6-2.1-6.3-4.9H66c-3,0-5.4,2.4-5.4,5.4V27.8z M71.5,8.6c0,1.9,1.5,3.4,3.4,3.4s3.4-1.5,3.4-3.4   c0-1.9-1.5-3.4-3.4-3.4S71.5,6.8,71.5,8.6z M48.4,21.3V15c-2.8-0.7-4.9-3.3-4.9-6.3c0-3.6,2.9-6.5,6.5-6.5s6.5,2.9,6.5,6.5   c0,3-2.1,5.6-4.9,6.3v6.3H48.4z M50,12c1.9,0,3.4-1.5,3.4-3.4c0-1.9-1.5-3.4-3.4-3.4s-3.4,1.5-3.4,3.4C46.6,10.5,48.1,12,50,12z    M42.5,15.6v12.2h-2c-0.4,0-0.7,0-1.1,0.1V15.6c0-3-2.4-5.4-5.4-5.4h-2.6c-0.7,2.8-3.3,4.9-6.3,4.9c-3.6,0-6.5-2.9-6.5-6.5   c0-3.6,2.9-6.5,6.5-6.5c3,0,5.6,2.1,6.3,4.9H34C38.7,7.1,42.5,10.9,42.5,15.6z M28.5,8.6c0-1.9-1.5-3.4-3.4-3.4s-3.4,1.5-3.4,3.4   c0,1.9,1.5,3.4,3.4,3.4S28.5,10.5,28.5,8.6z M40.1,72.3h2.4v12.2c0,4.7-3.8,8.5-8.5,8.5h-2.6c-0.7,2.8-3.3,4.9-6.3,4.9   c-3.6,0-6.5-2.9-6.5-6.5c0-3.6,2.9-6.5,6.5-6.5c3,0,5.6,2.1,6.3,4.9H34c3,0,5.4-2.4,5.4-5.4V72.2C39.6,72.2,39.8,72.3,40.1,72.3z    M28.5,91.4c0-1.9-1.5-3.4-3.4-3.4s-3.4,1.5-3.4,3.4c0,1.9,1.5,3.4,3.4,3.4S28.5,93.2,28.5,91.4z M56.5,91.4c0,3.6-2.9,6.5-6.5,6.5   s-6.5-2.9-6.5-6.5c0-3,2.1-5.6,4.9-6.3v-6.3h3.1V85C54.4,85.7,56.5,88.3,56.5,91.4z M53.4,91.4c0-1.9-1.5-3.4-3.4-3.4   s-3.4,1.5-3.4,3.4c0,1.9,1.5,3.4,3.4,3.4S53.4,93.2,53.4,91.4z M81.4,91.4c0,3.6-2.9,6.5-6.5,6.5c-3,0-5.6-2.1-6.3-4.9H66   c-4.7,0-8.5-3.8-8.5-8.5V72.3h2c0.4,0,0.7,0,1.1-0.1v12.3c0,3,2.4,5.4,5.4,5.4h2.6c0.7-2.8,3.3-4.9,6.3-4.9   C78.5,84.8,81.4,87.8,81.4,91.4z M78.3,91.4c0-1.9-1.5-3.4-3.4-3.4s-3.4,1.5-3.4,3.4c0,1.9,1.5,3.4,3.4,3.4S78.3,93.2,78.3,91.4z    M27.7,42.5H15.6c-4.7,0-8.5-3.8-8.5-8.5v-2.6c-2.8-0.7-4.9-3.3-4.9-6.3c0-3.6,2.9-6.5,6.5-6.5c3.6,0,6.5,2.9,6.5,6.5   c0,3-2.1,5.6-4.9,6.3V34c0,3,2.4,5.4,5.4,5.4h12.2c0,0.2,0,0.5,0,0.7V42.5z M12,25.1c0-1.9-1.5-3.4-3.4-3.4s-3.4,1.5-3.4,3.4   c0,1.9,1.5,3.4,3.4,3.4S12,27,12,25.1z M15,48.5h6.3v3.1H15c-0.7,2.8-3.3,4.9-6.3,4.9c-3.6,0-6.5-2.9-6.5-6.5   c0-3.6,2.9-6.5,6.5-6.5C11.7,43.5,14.3,45.6,15,48.5z M12,50c0-1.9-1.5-3.4-3.4-3.4S5.3,48.1,5.3,50c0,1.9,1.5,3.4,3.4,3.4   S12,51.9,12,50z M10.2,66v2.6c2.8,0.7,4.9,3.3,4.9,6.3c0,3.6-2.9,6.5-6.5,6.5c-3.6,0-6.5-2.9-6.5-6.5c0-3,2.1-5.6,4.9-6.3V66   c0-4.7,3.8-8.5,8.5-8.5h12.2v2c0,0.4,0,0.7,0.1,1.1H15.6C12.6,60.7,10.2,63.1,10.2,66z M8.6,71.5c-1.9,0-3.4,1.5-3.4,3.4   s1.5,3.4,3.4,3.4s3.4-1.5,3.4-3.4S10.5,71.5,8.6,71.5z M97.9,74.9c0,3.6-2.9,6.5-6.5,6.5c-3.6,0-6.5-2.9-6.5-6.5   c0-3,2.1-5.6,4.9-6.3V66c0-3-2.4-5.4-5.4-5.4H72.2c0-0.2,0-0.5,0-0.7v-2.4h12.2c4.7,0,8.5,3.8,8.5,8.5v2.6   C95.7,69.3,97.9,71.8,97.9,74.9z M94.7,74.9c0-1.9-1.5-3.4-3.4-3.4S88,73,88,74.9s1.5,3.4,3.4,3.4S94.7,76.8,94.7,74.9z M97.9,50   c0,3.6-2.9,6.5-6.5,6.5c-3,0-5.6-2.1-6.3-4.9h-6.3v-3.1H85c0.7-2.8,3.3-4.9,6.3-4.9C94.9,43.5,97.9,46.4,97.9,50z M94.7,50   c0-1.9-1.5-3.4-3.4-3.4S88,48.1,88,50c0,1.9,1.5,3.4,3.4,3.4S94.7,51.9,94.7,50z M97.9,25.1c0,3-2.1,5.6-4.9,6.3V34   c0,4.7-3.8,8.5-8.5,8.5H72.3v-2c0-0.4,0-0.7-0.1-1.1h12.3c3,0,5.4-2.4,5.4-5.4v-2.6c-2.8-0.7-4.9-3.3-4.9-6.3   c0-3.6,2.9-6.5,6.5-6.5C94.9,18.6,97.9,21.5,97.9,25.1z M94.7,25.1c0-1.9-1.5-3.4-3.4-3.4S88,23.2,88,25.1c0,1.9,1.5,3.4,3.4,3.4   S94.7,27,94.7,25.1z"></path></g></svg></g></g></svg>