
<svg xmlns="http://www.w3.org/2000/svg" xmlns:xlink="http://www.w3.org/1999/xlink" width="1200" height="1200" viewBox="0 0 1200 1200"><g><g transform="translate(600 600) scale(0.69 0.69) rotate(0) translate(-600 -600)" style="fill:#4cfd99"><svg fill="#4cfd99" xmlns:dc="http://purl.org/dc/elements/1.1/" xmlns:cc="http://creativecommons.org/ns#" xmlns:rdf="http://www.w3.org/1999/02/22-rdf-syntax-ns#" xmlns:svg="http://www.w3.org/2000/svg" xmlns="http://www.w3.org/2000/svg" xmlns:sodipodi="http://sodipodi.sourceforge.net/DTD/sodipodi-0.dtd" xmlns:inkscape="http://www.inkscape.org/namespaces/inkscape" version="1.1" x="0px" y="0px" viewBox="0 0 100 100"><g transform="translate(0,-952.36218)"><path style="text-indent:0;text-transform:none;direction:ltr;block-progression:tb;baseline-shift:baseline;color:#000000;enable-background:accumulate;" d="m 56.791762,1036.4021 a 2.0000048,2.0000048 0 0 1 -0.2275,-3.9787 c 17.6516,-2.7962 31.021299,-17.3258 31.021299,-34.79685 0,-4.3631 -0.8239,-8.5243 -2.3429,-12.3684 a 2.0000048,2.0000048 0 1 1 3.7197,-1.4697 c 1.7003,4.3029 2.6228,8.9706 2.6228,13.8381 0,19.51155 -14.930299,35.66375 -34.395299,38.74715 a 2.0000048,2.0000048 0 0 1 -0.3981,0.028 z" fill="#4cfd99" fill-opacity="1" fill-rule="evenodd" stroke="none" marker="none" visibility="visible" display="inline" overflow="visible"></path><path style="text-indent:0;text-transform:none;direction:ltr;block-progression:tb;baseline-shift:baseline;color:#000000;enable-background:accumulate;" d="m 80.998361,976.36095 a 2.0000048,2.0000048 0 0 1 -1.517199,-0.7341 c -6.7952,-8.0767 -17.2801,-13.284 -29.0741,-13.284 -11.7729,0 -22.2482,5.1976 -29.0434,13.265 a 2.0000048,2.0000048 0 1 1 -3.0588,-2.5769 c 7.5548,-8.9691 19.152,-14.6878 32.1022,-14.6878 12.9714,0 24.5795,5.7289 32.134399,14.7087 a 2.0000048,2.0000048 0 0 1 -1.5431,3.3091 z" fill="#4cfd99" fill-opacity="1" fill-rule="evenodd" stroke="none" marker="none" visibility="visible" display="inline" overflow="visible"></path><path style="text-indent:0;text-transform:none;direction:ltr;block-progression:tb;baseline-shift:baseline;color:#000000;enable-background:accumulate;" d="m 44.325562,1036.4531 a 2.0000048,2.0000048 0 0 1 -0.3382,-0.027 c -19.6397,-2.9464 -34.7481002,-19.1721 -34.7481002,-38.80005 0,-4.7509 0.8782002,-9.3033 2.5003002,-13.5203 a 2.0000048,2.0000048 0 1 1 3.7331,1.4359 c -1.4499,3.7695 -2.234,7.8255 -2.234,12.0844 0,17.57555 13.5286,32.17235 31.3419,34.84475 a 2.0000048,2.0000048 0 0 1 -0.255,3.9818 z" fill="#4cfd99" fill-opacity="1" fill-rule="evenodd" stroke="none" marker="none" visibility="visible" display="inline" overflow="visible"></path><path style="text-indent:0;text-transform:none;direction:ltr;block-progression:tb;baseline-shift:baseline;color:#000000;enable-background:accumulate;" d="m 28.676762,999.47495 c -0.9422,-0.063 -1.776,-0.8807 -1.8581,-1.8215 -0.082,-0.9407 0.5974,-1.8902 1.5143,-2.1159 l 9.3438,-2.3125 -30.6250002,-16.3438 c -0.9575,-0.4717 -1.3831,-1.7892 -0.8825,-2.732 0.5006,-0.9428 1.8303,-1.3282 2.7575,-0.7992 l 31.1562002,16.625 -2.5,-9.25 c -0.3741,-1.0334 0.2884,-2.3158 1.3477,-2.6086 1.0593,-0.2928 2.2864,0.4673 2.4961,1.5461 l 3.625,13.4687 c 0.393,1.2616 -0.2101,2.4462 -1.3438,2.75 l -14.4374,3.5312 c -0.1933,0.05 -0.3942,0.071 -0.5938,0.062 z" fill="#4cfd99" fill-opacity="1" fill-rule="evenodd" stroke="none" marker="none" visibility="visible" display="inline" overflow="visible"></path><path style="text-indent:0;text-transform:none;direction:ltr;block-progression:tb;baseline-shift:baseline;color:#000000;enable-background:accumulate;" d="m 71.082962,999.47495 a 2.0000048,2.0000048 0 0 1 -0.3124,-0.062 l -14.4063,-3.5312 a 2.0000048,2.0000048 0 0 1 -1.4687,-2.4687 l 3.7187,-13.75 a 2.0090129,2.0090129 0 1 1 3.875,1.0625 l -2.5,9.25 31.062499,-16.5938 a 2.0000048,2.0000048 0 1 1 1.875,3.5313 l -30.531199,16.3125 9.3124,2.3125 a 2.0000048,2.0000048 0 0 1 -0.4062,3.9374 2.0000048,2.0000048 0 0 1 -0.2188,0 z" fill="#4cfd99" fill-opacity="1" fill-rule="evenodd" stroke="none" marker="none" visibility="visible" display="inline" overflow="visible"></path><path style="text-indent:0;text-transform:none;direction:ltr;block-progression:tb;baseline-shift:baseline;color:#000000;enable-background:accumulate;" d="m 50.426762,1046.3812 c -1.0473,-0.016 -1.9853,-0.984 -1.9688,-2.0313 l -0.0312,-33.4375 -7.1875,6.75 c -0.769,0.72 -2.1238,0.6753 -2.8437,-0.094 -0.72,-0.769 -0.6753,-2.1238 0.094,-2.8437 l 10.5625,-9.875 c 0.8732,-0.8732 2.0688,-0.6499 2.75,0.031 l 10.5,10.0625 c 0.5928,0.5474 0.7998,1.4729 0.4967,2.2207 -0.3032,0.7478 -1.0963,1.2679 -1.9029,1.248 -0.5116,-0.012 -1.0153,-0.2297 -1.375,-0.5937 l -7.0938,-6.8125 0.031,33.3437 c 0.017,1.0681 -0.9632,2.0481 -2.0312,2.0313 z" fill="#4cfd99" fill-opacity="1" fill-rule="evenodd" stroke="none" marker="none" visibility="visible" display="inline" overflow="visible"></path></g></svg></g></g></svg>