
<svg xmlns="http://www.w3.org/2000/svg" xmlns:xlink="http://www.w3.org/1999/xlink" width="1200" height="1200" viewBox="0 0 1200 1200"><g><circle stroke="none" fill="#2b2e3c" r="48%" cx="50%" cy="50%"></circle><g transform="translate(600 600) scale(0.69 0.69) rotate(0) translate(-600 -600)" style="fill:#bff4ff"><svg fill="#bff4ff" xmlns="http://www.w3.org/2000/svg" xmlns:xlink="http://www.w3.org/1999/xlink" version="1.1" x="0px" y="0px" viewBox="0 0 100 100" style="enable-background:new 0 0 100 100;" xml:space="preserve"><style type="text/css">
	.st0{fill:none;stroke:#bff4ff;stroke-width:2;stroke-linecap:round;stroke-linejoin:round;stroke-miterlimit:10;}
</style><path d="M44.708,35.206h8.834c0.553,0,1-0.447,1-1s-0.447-1-1-1h-8.834c-0.553,0-1,0.447-1,1S44.155,35.206,44.708,35.206z"></path><path d="M49.125,30.591c2.987,0,5.417-2.43,5.417-5.417s-2.43-5.417-5.417-5.417s-5.417,2.43-5.417,5.417  S46.138,30.591,49.125,30.591z M49.125,21.757c1.884,0,3.417,1.533,3.417,3.417s-1.533,3.417-3.417,3.417s-3.417-1.533-3.417-3.417  S47.241,21.757,49.125,21.757z"></path><path d="M11.062,89.93h78c0.553,0,1-0.447,1-1v-8.824c0-0.553-0.447-1-1-1h-3.269V24.063c0-0.553-0.447-1-1-1H73.462V10.93  c0-0.553-0.447-1-1-1H58.277c-0.553,0-1,0.447-1,1v2H41.099v-2c0-0.553-0.447-1-1-1H27.914c-0.553,0-1,0.447-1,1v12.134H15.582  c-0.553,0-1,0.447-1,1v55.042h-3.52c-0.553,0-1,0.447-1,1v8.824C10.062,89.482,10.51,89.93,11.062,89.93z M73.462,79.105V41.92  h10.332v37.186H73.462z M83.794,39.92H73.462v-4.187h10.332V39.92z M83.794,25.063v8.67H73.462v-8.67H83.794z M71.462,11.93v67.176  H59.277V11.93H71.462z M57.277,14.93v64.176H41.099V14.93H57.277z M39.099,25.278H28.914v-4.187h10.185V25.278z M28.914,27.278  h10.185v51.827H28.914V27.278z M39.099,11.93v7.162H28.914V11.93H39.099z M16.582,25.063h10.332v54.042H16.582V25.063z   M12.062,81.105h76v6.824h-76V81.105z"></path><path d="M81.075,71.412h-4.889c-0.553,0-1,0.447-1,1s0.447,1,1,1h4.889c0.553,0,1-0.447,1-1S81.628,71.412,81.075,71.412z"></path><path d="M76.187,69.569h4.889c0.553,0,1-0.447,1-1s-0.447-1-1-1h-4.889c-0.553,0-1,0.447-1,1S75.634,69.569,76.187,69.569z"></path><path d="M62.028,18.11h6.889c0.553,0,1-0.447,1-1s-0.447-1-1-1h-6.889c-0.553,0-1,0.447-1,1S61.476,18.11,62.028,18.11z"></path><path d="M62.028,21.757h6.889c0.553,0,1-0.447,1-1s-0.447-1-1-1h-6.889c-0.553,0-1,0.447-1,1S61.476,21.757,62.028,21.757z"></path><path d="M24.189,71.412h-4.889c-0.553,0-1,0.447-1,1s0.447,1,1,1h4.889c0.553,0,1-0.447,1-1S24.742,71.412,24.189,71.412z"></path><path d="M19.301,69.569h4.889c0.553,0,1-0.447,1-1s-0.447-1-1-1h-4.889c-0.553,0-1,0.447-1,1S18.748,69.569,19.301,69.569z"></path></svg></g></g></svg>