
<svg xmlns="http://www.w3.org/2000/svg" xmlns:xlink="http://www.w3.org/1999/xlink" width="1200" height="1200" viewBox="0 0 1200 1200"><g><circle stroke="none" fill="#2b2e3c" r="48%" cx="50%" cy="50%"></circle><g transform="translate(600 600) scale(0.69 0.69) rotate(0) translate(-600 -600)" style="fill:#bff4ff"><svg fill="#bff4ff" xmlns="http://www.w3.org/2000/svg" xmlns:xlink="http://www.w3.org/1999/xlink" version="1.1" x="0px" y="0px" viewBox="0 0 100 100" enable-background="new 0 0 100 100" xml:space="preserve"><g><g><path d="M21.903,68.117c-0.645,0-1.288-0.261-1.757-0.775L5.621,51.422c-0.828-0.908-0.828-2.297,0-3.204l14.525-15.921    c0.885-0.969,2.389-1.038,3.359-0.154c0.97,0.885,1.039,2.389,0.154,3.358L10.595,49.819L23.66,64.138    c0.885,0.969,0.816,2.473-0.154,3.358C23.049,67.911,22.475,68.117,21.903,68.117z"></path></g><g><path d="M78.099,68.117c-0.572,0-1.145-0.205-1.601-0.621c-0.97-0.885-1.039-2.388-0.154-3.358l13.064-14.318L76.344,35.501    c-0.885-0.97-0.816-2.474,0.154-3.358c0.97-0.884,2.473-0.815,3.358,0.154l14.525,15.921c0.828,0.908,0.828,2.297,0,3.204    l-14.525,15.92C79.387,67.856,78.744,68.117,78.099,68.117z"></path></g><path d="M63.773,5.613c-1.065-0.395-2.176-0.595-3.302-0.595c-3.997,0-7.606,2.544-8.979,6.33c0,0-20.241,55.865-20.256,55.922   c-0.007,0.022-1.399,25.182-1.399,25.182c-0.08,1.06,0.559,2.043,1.562,2.403c0.265,0.096,0.538,0.141,0.808,0.141   c0.753,0,1.481-0.357,1.936-0.993c0,0,15.017-20.109,15.02-20.117c0.028-0.061,20.289-55.932,20.289-55.932   C71.26,12.977,68.712,7.442,63.773,5.613z M45.582,69.868l-9.038-3.346l17.428-48.074l9.034,3.348L45.582,69.868z M55.964,12.955   c0.695-1.916,2.506-3.203,4.507-3.203c0.558,0,1.112,0.1,1.645,0.298c2.504,0.927,3.789,3.75,2.865,6.295l-0.361,0.997   l-9.032-3.347L55.964,12.955z M34.492,86.182l1.298-14.888l7.33,2.714L34.492,86.182z"></path></g></svg></g></g></svg>