
<svg xmlns="http://www.w3.org/2000/svg" xmlns:xlink="http://www.w3.org/1999/xlink" width="1200" height="1200" viewBox="0 0 1200 1200"><g><g transform="translate(600 600) scale(0.69 0.69) rotate(0) translate(-600 -600)" style="fill:#fac70b"><svg fill="#fac70b" xmlns="http://www.w3.org/2000/svg" xmlns:xlink="http://www.w3.org/1999/xlink" version="1.1" x="0px" y="0px" viewBox="0 0 91 91" enable-background="new 0 0 91 91" xml:space="preserve"><g><g><path d="M33.245,49.332c0.361-1.559,1.385-2.887,3.131-4.061l-2.342-3.486c-2.635,1.77-4.275,3.99-4.881,6.598    c-0.07,0.303-0.131,0.6-0.182,0.891l4.137,0.729C33.146,49.783,33.192,49.561,33.245,49.332z"></path><path d="M65.116,36.771l-0.232,4.193c2.451,0.137,4.389,0.34,5.752,0.535c0.387,0.375,0.904,0.598,1.457,0.598    c0.703,0,1.359-0.352,1.75-0.938c1.254-1.891,12.254-18.67,12.254-25.676c0-7.723-6.283-14.004-14.004-14.004    c-7.723,0-14.004,6.281-14.004,14.004c0,5.143,5.922,15.543,9.572,21.465C66.845,36.881,65.993,36.82,65.116,36.771z M72.093,5.68    c5.406,0,9.805,4.398,9.805,9.805c0,3.793-5.451,13.715-9.805,20.641c-4.355-6.924-9.805-16.844-9.805-20.641    C62.288,10.078,66.687,5.68,72.093,5.68z"></path><path d="M24.253,86.027c2.037,0.33,4.654,0.74,7.596,1.17l0.605-4.156c-2.916-0.426-5.51-0.832-7.529-1.16L24.253,86.027z"></path><path d="M59.397,40.814l0.5,0.002l0.023-4.199l-0.523-0.002c-2.514,0-4.967,0.092-7.291,0.271l0.324,4.188    C54.649,40.902,56.993,40.814,59.397,40.814z"></path><path d="M67.618,61.631l-1.342,3.98c2.105,0.711,3.783,1.979,4.848,3.67l3.553-2.24C73.091,64.523,70.649,62.654,67.618,61.631z"></path><path d="M47.522,41.631l-0.635-4.152c-2.941,0.449-5.568,1.074-7.805,1.859l1.391,3.963    C42.466,42.604,44.837,42.041,47.522,41.631z"></path><path d="M62.097,85.166l0.908,4.102c2.961-0.656,5.563-1.852,7.727-3.557l-2.598-3.301C66.47,83.723,64.438,84.648,62.097,85.166z    "></path><path d="M54.347,60.52l-0.125,4.197c1.309,0.039,2.566,0.063,3.742,0.084c1.445,0.025,2.762,0.049,3.879,0.1l0.189-4.195    c-1.15-0.053-2.504-0.078-3.992-0.104C56.88,60.58,55.638,60.557,54.347,60.52z"></path><path d="M72.405,73.133c0.023,0.275,0.037,0.553,0.037,0.83c0,1.799-0.508,3.607-1.469,5.23l3.615,2.139    c1.342-2.27,2.053-4.818,2.053-7.369c0-0.404-0.018-0.807-0.053-1.205L72.405,73.133z"></path><path d="M56.267,85.617c-1.863-0.088-3.953-0.234-6.213-0.438l-0.375,4.184c2.318,0.207,4.469,0.359,6.389,0.449    c0.48,0.023,0.951,0.033,1.416,0.033h0.014l-0.014-4.199C57.085,85.646,56.681,85.637,56.267,85.617z"></path><path d="M33.353,53.883l-3.92,1.51c1.027,2.666,3.203,4.775,6.465,6.268l1.748-3.818C35.384,56.807,33.979,55.512,33.353,53.883z"></path><path d="M41.155,63.363c2.26,0.506,4.836,0.863,7.875,1.094l0.316-4.188c-2.836-0.215-5.215-0.543-7.273-1.004L41.155,63.363z"></path><path d="M36.923,87.908c2.705,0.361,5.273,0.678,7.639,0.939l0.463-4.174c-2.334-0.258-4.871-0.57-7.545-0.928L36.923,87.908z"></path><path d="M11.579,74.002c-4.369,0-7.924,3.553-7.924,7.922s3.555,7.924,7.924,7.924s7.922-3.555,7.922-7.924    S15.948,74.002,11.579,74.002z M11.579,85.648c-2.053,0-3.725-1.672-3.725-3.725s1.672-3.723,3.725-3.723s3.723,1.67,3.723,3.723    S13.632,85.648,11.579,85.648z"></path><path d="M76.335,15.363c0-2.34-1.902-4.242-4.242-4.242s-4.242,1.902-4.242,4.242s1.902,4.242,4.242,4.242    S76.335,17.703,76.335,15.363z"></path></g></g></svg></g></g></svg>