
<svg xmlns="http://www.w3.org/2000/svg" xmlns:xlink="http://www.w3.org/1999/xlink" width="1200" height="1200" viewBox="0 0 1200 1200"><g><g transform="translate(600 600) scale(0.69 0.69) rotate(0) translate(-600 -600)" style="fill:#730071"><svg fill="#730071" xmlns="http://www.w3.org/2000/svg" xmlns:xlink="http://www.w3.org/1999/xlink" version="1.1" x="0px" y="0px" viewBox="0 0 64 64" style="enable-background:new 0 0 64 64;" xml:space="preserve"><style type="text/css">
	.st0{display:none;}
	.st1{display:inline;}
	.st2{fill:none;stroke:#730071;stroke-width:0.1;stroke-miterlimit:10;}
</style><polygon points="17.3,23.8 8.8,3.5 7.2,2 7,4.2 15.4,24.6 "></polygon><path d="M50.8,21.5c-1.1,2.6-3.7,4.2-6.5,4.2c0.8,1.2,1.2,2.5,1.3,3.9c3.8-0.5,7.3-2.9,8.9-6.6c2.3-5.6-0.2-12-5.7-14.3l-1.5,3.7  C50,13.6,52.3,18,50.8,21.5z"></path><path d="M49.2,18H36c0.2,1.7,1.3,3.3,2.9,4h9.3c0.3-0.4,0.6-0.8,0.8-1.2C49.4,19.9,49.4,18.9,49.2,18z"></path><path d="M28.7,22c-0.5-1.3-0.8-2.6-0.8-4H17l1.7,4H28.7z"></path><polygon points="8,22 12.2,22 10.5,18 8,18 "></polygon><path d="M19.7,32.4c0.5-0.2,1.1,0,1.3,0.5l0.4,1h4.3l-1-2.5c-0.4-1-1.6-1.5-2.6-1.1l-0.8-1.8l1.8-0.8L22.5,26  c-0.4-1-1.6-1.5-2.6-1.1l-5.5,2.3c-1,0.4-1.5,1.6-1.1,2.6l0.7,1.8l1.8-0.8l0.8,1.8c-0.6,0.2-1,0.7-1.1,1.3h3.8l-0.1-0.2  C19,33.2,19.2,32.6,19.7,32.4z"></path><path d="M27,34h5l3.5-4.7c-1.3-0.6-2.4-1.3-3.4-2.2L27,34z"></path><path d="M36.7,27.6l1.7,0.7c0.8,0.4,1.3,1.2,1.2,2.1L39.1,34h4l0.4-3c0.4-2.7-1.1-5.4-3.6-6.4l-1.7-0.7c-3.6-1.5-5.3-5.6-3.8-9.1  c1.5-3.6,5.6-5.3,9.1-3.8L45,7.3c-5.6-2.3-12,0.3-14.4,6C28.4,18.8,31.1,25.3,36.7,27.6z"></path><polygon points="58,16 58,36 6,36 6,16 2,16 2,62 62,62 62,16 "></polygon><g class="st0"><g class="st1"><rect x="2" y="2" class="st2" width="60" height="60"></rect><line class="st2" x1="32" y1="2" x2="32" y2="62"></line><line class="st2" x1="62" y1="32" x2="2" y2="32"></line><line class="st2" x1="2" y1="2" x2="62" y2="62"></line><rect x="10" y="10" class="st2" width="44" height="44"></rect><line class="st2" x1="62" y1="2" x2="2" y2="62"></line><line class="st2" x1="2" y1="32" x2="32" y2="2"></line><line class="st2" x1="32" y1="2" x2="62" y2="32"></line><line class="st2" x1="62" y1="32" x2="32" y2="62"></line><line class="st2" x1="32" y1="62" x2="2" y2="32"></line><circle class="st2" cx="32" cy="32" r="21"></circle></g></g></svg></g></g></svg>