
<svg xmlns="http://www.w3.org/2000/svg" xmlns:xlink="http://www.w3.org/1999/xlink" width="1200" height="1200" viewBox="0 0 1200 1200"><g><circle stroke="none" fill="#2b2e3c" r="48%" cx="50%" cy="50%"></circle><g transform="translate(600 600) scale(0.69 0.69) rotate(0) translate(-600 -600)" style="fill:#bff4ff"><svg fill="#bff4ff" xmlns="http://www.w3.org/2000/svg" xmlns:xlink="http://www.w3.org/1999/xlink" version="1.1" x="0px" y="0px" viewBox="0 0 96 96" enable-background="new 0 0 96 96" xml:space="preserve"><path d="M40.533,38.058l1.017-2.822c-0.47-0.17-11.667-4.118-23.375-0.004l0.994,2.83C29.842,34.313,40.428,38.02,40.533,38.058z"></path><path d="M40.533,47.057l1.017-2.822c-0.47-0.169-11.667-4.118-23.375-0.004l0.994,2.83C29.842,43.312,40.428,47.019,40.533,47.057z"></path><path d="M40.533,56.057l1.017-2.822c-0.47-0.17-11.667-4.118-23.375-0.004l0.994,2.83C29.842,52.312,40.428,56.02,40.533,56.057z"></path><path d="M76.82,38.058l1.017-2.822c-0.47-0.17-11.668-4.118-23.375-0.004l0.994,2.83C66.128,34.313,76.714,38.02,76.82,38.058z"></path><path d="M85.787,20.92l-0.991-0.357c-0.334-0.121-8.326-2.961-19.214-2.961c-6.224,0-12.137,0.938-17.586,2.787  c-1.961-0.641-9.236-2.787-18.7-2.787c-6.413,0-12.495,0.995-18.079,2.957l-1.003,0.352v3.042H4V78.4h88V23.953h-6.213V20.92z   M85.336,32.219l0.45,0.173l1.08,0.415l-1.08,2.807l-3,7.801L78.69,54.067l-1.539,1.718l0.002-0.656l0.006-1.65l0.16-0.417  l5.466-14.213L85.336,32.219z M49.5,23.061c4.99-1.626,10.39-2.46,16.082-2.46c8.197,0,14.79,1.733,17.205,2.464v7.428  l-5.246,13.641c-1.888-0.625-12.263-3.704-23.079,0.097l0.994,2.83c9.576-3.364,19.077-0.727,21.005-0.121l-2.06,5.355  c-4.28-0.934-11.991-1.857-19.939,0.936l0.994,2.83c7.459-2.62,14.872-1.598,18.698-0.732l-0.031,8.333l7.17-8.003l1.494-3.884  v16.607c-3.071-0.871-9.392-2.333-17.205-2.333c-5.657,0-11.053,0.783-16.082,2.313V23.061z M13.213,23.049  c4.988-1.625,10.393-2.448,16.082-2.448c8.215,0,14.802,1.737,17.205,2.465v45.316c-3.067-0.871-9.383-2.334-17.205-2.334  c-5.656,0-11.055,0.774-16.082,2.303V23.049z M89,75.4H7V26.953h3.213v45.584l1.997-0.702c5.264-1.849,11.012-2.787,17.085-2.787  c10.336,0,18.119,2.755,18.196,2.783l0.502,0.181l0.503-0.177c5.264-1.849,11.012-2.787,17.084-2.787  c10.336,0,18.119,2.755,18.197,2.783l2.008,0.722v-28.58L89,35.618V75.4z M89,26.953v3.462l-3.213-1.236v-2.226H89z"></path></svg></g></g></svg>