
<svg xmlns="http://www.w3.org/2000/svg" xmlns:xlink="http://www.w3.org/1999/xlink" width="1200" height="1200" viewBox="0 0 1200 1200"><g><circle stroke="none" fill="#2b2e3c" r="48%" cx="50%" cy="50%"></circle><g transform="translate(600 600) scale(0.69 0.69) rotate(0) translate(-600 -600)" style="fill:#bff4ff"><svg fill="#bff4ff" xmlns="http://www.w3.org/2000/svg" data-name="Layer 1" viewBox="0 0 100 100" x="0px" y="0px"><title>Artboard 16</title><path d="M29.59,84.34a14.88,14.88,0,0,1,11.1,5l.35.36A12.52,12.52,0,0,0,42.5,91c.21.15.41.3.6.42a12.37,12.37,0,0,0,1.41.81l.28.13c.26.13.52.24.8.34a9.86,9.86,0,0,0,1.05.33c.24.07.56.16.94.23a12.12,12.12,0,0,0,1.64.21l.77,0a12.43,12.43,0,0,0,2.46-.25c.32-.06.59-.13.73-.18a11,11,0,0,0,1.24-.39l.09,0,.62-.27.25-.12a12.29,12.29,0,0,0,1.53-.87l.53-.37A12.64,12.64,0,0,0,59,89.61l.33-.36a14.59,14.59,0,0,1,11-4.91h4.08a2.5,2.5,0,1,0,0-5H70.38A19.58,19.58,0,0,0,55.57,86l-.09.1-.08.08a7.66,7.66,0,0,1-1,.85l-.3.21a7.55,7.55,0,0,1-1,.54l-.16.08-.39.17a6.72,6.72,0,0,1-.75.23l-.43.1a7.44,7.44,0,0,1-1.47.15l-.44,0a7.23,7.23,0,0,1-1-.13c-.21,0-.38-.09-.59-.15a6,6,0,0,1-.61-.19l-.45-.19-.18-.09a7.51,7.51,0,0,1-.87-.5L45.5,87a7.79,7.79,0,0,1-.9-.8l-.19-.2a19.88,19.88,0,0,0-14.82-6.63H6V22.47h6.24V69.55a2.5,2.5,0,0,0,2.5,2.5H30.29a23.93,23.93,0,0,1,17.83,8,2.5,2.5,0,1,0,3.73-3.33A28.93,28.93,0,0,0,30.29,67H17.24V11.53H30.29a23.92,23.92,0,0,1,17.19,7.31v5.71a2.5,2.5,0,0,0,5,0V18.83a23.92,23.92,0,0,1,17.19-7.31H82.73V32.28a2.5,2.5,0,0,0,5,0V22.47H94V65.55a2.5,2.5,0,0,0,5,0V21.25a3.78,3.78,0,0,0-3.78-3.78H87.73V9a2.5,2.5,0,0,0-2.5-2.5H69.68A28.94,28.94,0,0,0,50,14.27,28.94,28.94,0,0,0,30.29,6.53H14.74A2.5,2.5,0,0,0,12.24,9v8.44H4.78A3.78,3.78,0,0,0,1,21.25V80.57a3.78,3.78,0,0,0,3.78,3.78Z"></path><path d="M82.41,61.15a22.48,22.48,0,1,0-9.69,9.69L87.3,85.42A6.85,6.85,0,1,0,97,75.73ZM50.08,63.22a17.48,17.48,0,1,1,12.36,5.12A17.36,17.36,0,0,1,50.08,63.22ZM93.46,81.88a1.9,1.9,0,0,1-2.62,0L77,68c.47-.4.93-.81,1.37-1.25s.85-.9,1.25-1.37L93.46,79.26a1.85,1.85,0,0,1,0,2.62Z"></path></svg></g></g></svg>