<?xml version="1.0" encoding="iso-8859-1"?>
<!-- Generator: Adobe Illustrator 19.0.0, SVG Export Plug-In . SVG Version: 6.00 Build 0)  -->
<svg version="1.1" id="Capa_1" xmlns="http://www.w3.org/2000/svg" xmlns:xlink="http://www.w3.org/1999/xlink" x="0px" y="0px"
	 viewBox="0 0 512.001 512.001" style="enable-background:new 0 0 512.001 512.001;" xml:space="preserve">
<circle style="fill:#1A2B63;" cx="261.81" cy="256.001" r="245"/>
<path style="fill:#91E0E8;" d="M505.249,132.459H266.025v92.558c0,2.75-2.25,5-5,5h-32.521v90.084c0,3.714,3.039,6.751,6.75,6.751
	h269.995c3.713,0,6.751-3.038,6.751-6.751V139.209C512,135.496,508.962,132.459,505.249,132.459z"/>
<path style="fill:#5DC1D8;" d="M248.347,320.101v-90.085h-19.842v90.085c0,3.714,3.039,6.751,6.75,6.751h19.842
	C251.386,326.853,248.347,323.815,248.347,320.101z"/>
<path style="fill:#0F9390;" d="M447.251,238.15c-2.393-2.838-6.308-2.838-8.701,0l-35.09,41.635c-2.394,2.838-6.309,2.838-8.701,0
	l-66.237-78.579c-2.393-2.841-6.308-2.841-8.701,0l-91.316,108.331v10.564c0,3.714,3.039,6.751,6.75,6.751H505.25
	c3.713,0,6.751-3.038,6.751-6.751v-5.138L447.251,238.15z"/>
<circle style="fill:#FFFFFF;" cx="464.7" cy="182.691" r="25.312"/>
<path style="fill:#D9EAFC;" d="M453.376,182.689c0-11.554,7.743-21.292,18.32-24.327c-2.222-0.637-4.565-0.986-6.992-0.986
	c-13.978,0-25.31,11.332-25.31,25.313s11.332,25.313,25.31,25.313c2.427,0,4.771-0.349,6.992-0.986
	C461.119,203.981,453.376,194.244,453.376,182.689z"/>
<path style="fill:#FE3745;" d="M267.025,226.017c0,2.75-2.25,5-5,5H5c-2.75,0-5-2.25-5-5V29.999c0-2.75,2.25-5,5-5h257.025
	c2.75,0,5,2.25,5,5V226.017z"/>
<path style="fill:#FFFFFF;" d="M82.496,79.1c0-5.5,3.897-7.75,8.66-5l84.713,48.908c4.763,2.75,4.763,7.25,0,10l-84.713,48.909
	c-4.763,2.75-8.66,0.5-8.66-5V79.1z"/>
<path style="fill:#D9EAFC;" d="M102.338,80.556L91.156,74.1c-4.763-2.75-8.66-0.5-8.66,5v97.817c0,5.5,3.897,7.75,8.66,5
	l11.182-6.456C102.338,175.461,102.338,80.556,102.338,80.556z"/>
<g>
	<path style="fill:#B7092B;" d="M251.507,63.511c0,1.65-1.35,3-3,3h-20.999c-1.65,0-3-1.35-3-3V42.513c0-1.65,1.35-3,3-3h20.999
		c1.65,0,3,1.35,3,3L251.507,63.511L251.507,63.511z"/>
	<path style="fill:#B7092B;" d="M251.507,101.009c0,1.65-1.35,3-3,3h-20.999c-1.65,0-3-1.35-3-3V80.011c0-1.65,1.35-3,3-3h20.999
		c1.65,0,3,1.35,3,3L251.507,101.009L251.507,101.009z"/>
	<path style="fill:#B7092B;" d="M251.507,138.507c0,1.65-1.35,3-3,3h-20.999c-1.65,0-3-1.35-3-3v-20.998c0-1.65,1.35-3,3-3h20.999
		c1.65,0,3,1.35,3,3L251.507,138.507L251.507,138.507z"/>
	<path style="fill:#B7092B;" d="M251.507,176.005c0,1.65-1.35,3-3,3h-20.999c-1.65,0-3-1.35-3-3v-20.998c0-1.65,1.35-3,3-3h20.999
		c1.65,0,3,1.35,3,3L251.507,176.005L251.507,176.005z"/>
	<path style="fill:#B7092B;" d="M251.507,213.503c0,1.65-1.35,3-3,3h-20.999c-1.65,0-3-1.35-3-3v-20.998c0-1.65,1.35-3,3-3h20.999
		c1.65,0,3,1.35,3,3L251.507,213.503L251.507,213.503z"/>
	<path style="fill:#B7092B;" d="M42.517,63.511c0,1.65-1.35,3-3,3H18.519c-1.65,0-3-1.35-3-3V42.513c0-1.65,1.35-3,3-3h20.998
		c1.65,0,3,1.35,3,3V63.511z"/>
	<path style="fill:#B7092B;" d="M42.517,101.009c0,1.65-1.35,3-3,3H18.519c-1.65,0-3-1.35-3-3V80.011c0-1.65,1.35-3,3-3h20.998
		c1.65,0,3,1.35,3,3V101.009z"/>
	<path style="fill:#B7092B;" d="M42.517,138.507c0,1.65-1.35,3-3,3H18.519c-1.65,0-3-1.35-3-3v-20.998c0-1.65,1.35-3,3-3h20.998
		c1.65,0,3,1.35,3,3V138.507z"/>
	<path style="fill:#B7092B;" d="M42.517,176.005c0,1.65-1.35,3-3,3H18.519c-1.65,0-3-1.35-3-3v-20.998c0-1.65,1.35-3,3-3h20.998
		c1.65,0,3,1.35,3,3V176.005z"/>
	<path style="fill:#B7092B;" d="M42.517,213.503c0,1.65-1.35,3-3,3H18.519c-1.65,0-3-1.35-3-3v-20.998c0-1.65,1.35-3,3-3h20.998
		c1.65,0,3,1.35,3,3V213.503z"/>
</g>
<path style="fill:#52BBEF;" d="M205.946,254.956H32.04c-2.75,0-5,2.25-5,5v66.246c6.924,23.19,17.188,44.936,30.237,64.685h63.079
	l40.777,40.777c1.945,1.945,3.536,1.286,3.536-1.464v-39.313h41.278c2.75,0,5-2.25,5-5V259.956
	C210.946,257.206,208.696,254.956,205.946,254.956z"/>
<path style="fill:#1E99D6;" d="M46.882,259.956c0-2.75,2.25-5,5-5H32.04c-2.75,0-5,2.25-5,5v66.246
	c4.963,16.623,11.651,32.499,19.842,47.434V259.956z"/>
<g>
	<path style="fill:#FFFFFF;" d="M168.621,304.667H69.363c-4.142,0-7.5-3.358-7.5-7.5s3.358-7.5,7.5-7.5h99.258
		c4.142,0,7.5,3.358,7.5,7.5C176.121,301.309,172.763,304.667,168.621,304.667z"/>
	<path style="fill:#FFFFFF;" d="M168.621,330.779H69.363c-4.142,0-7.5-3.358-7.5-7.5s3.358-7.5,7.5-7.5h99.258
		c4.142,0,7.5,3.358,7.5,7.5S172.763,330.779,168.621,330.779z"/>
	<path style="fill:#FFFFFF;" d="M119.19,356.89H69.363c-4.142,0-7.5-3.358-7.5-7.5s3.358-7.5,7.5-7.5h49.827
		c4.142,0,7.5,3.358,7.5,7.5S123.332,356.89,119.19,356.89z"/>
</g>
<path style="fill:#EF8318;" d="M391.61,352.558H234.005c-2.75,0-5,2.25-5,5v119.313c0,2.75,2.25,5,5,5H356.88
	c13.952-5.879,27.237-13.024,39.73-21.272v-103.04C396.61,354.808,394.36,352.558,391.61,352.558z"/>
<path style="fill:#DB722C;" d="M248.847,476.87V357.558c0-2.75,2.25-5,5-5h-19.842c-2.75,0-5,2.25-5,5v119.313c0,2.75,2.25,5,5,5
	h19.842C251.097,481.87,248.847,479.62,248.847,476.87z"/>
<path style="fill:#FFFFFF;" d="M285.025,390.238c0-5.5,3.897-7.75,8.66-5l46.724,26.976c4.763,2.75,4.763,7.25,0,10l-46.724,26.976
	c-4.763,2.75-8.66,0.5-8.66-5V390.238z"/>
<g>
</g>
<g>
</g>
<g>
</g>
<g>
</g>
<g>
</g>
<g>
</g>
<g>
</g>
<g>
</g>
<g>
</g>
<g>
</g>
<g>
</g>
<g>
</g>
<g>
</g>
<g>
</g>
<g>
</g>
</svg>
