
<svg xmlns="http://www.w3.org/2000/svg" xmlns:xlink="http://www.w3.org/1999/xlink" width="1200" height="1200" viewBox="0 0 1200 1200"><g><g transform="translate(600 600) scale(0.69 0.69) rotate(0) translate(-600 -600)" style="fill:#2bb841"><svg fill="#2bb841" xmlns="http://www.w3.org/2000/svg" data-name="Layer 1" viewBox="0 0 128 128" x="0px" y="0px"><title>99 Miscellaneous 24 final</title><polygon points="83.5 107.69 83.5 112.31 88 114.73 92.5 112.31 92.5 107.69 88 105.27 83.5 107.69"></polygon><polygon points="35.5 107.69 35.5 112.31 40 114.73 44.5 112.31 44.5 107.69 40 105.27 35.5 107.69"></polygon><polygon points="11.5 61.69 11.5 66.31 16 68.73 20.5 66.31 20.5 61.69 16 59.27 11.5 61.69"></polygon><polygon points="107.5 61.69 107.5 66.31 112 68.73 116.5 66.31 116.5 61.69 112 59.27 107.5 61.69"></polygon><polygon points="68.5 20.31 68.5 15.69 64 13.27 59.5 15.69 59.5 20.31 64 22.73 68.5 20.31"></polygon><polygon points="59.5 61.69 59.5 66.31 64 68.73 68.5 66.31 68.5 61.69 64 59.27 59.5 61.69"></polygon><path d="M127,54.26l-13-7.42V17.74A8,8,0,1,0,104.26,8H78.53L65,.26a2,2,0,0,0-2,0L49.47,8H23.74A8,8,0,1,0,14,17.74v29.1L1,54.26A2,2,0,0,0,0,56V72a2,2,0,0,0,1,1.74l14,8a2,2,0,0,0,2,0l12.68-7.25,7.83,7.84v10.8L25,100.26A2,2,0,0,0,24,102v16a2,2,0,0,0,1,1.74l14,8a2,2,0,0,0,2,0l14-8A2,2,0,0,0,56,118V102a2,2,0,0,0-1-1.74L41.5,92.55V82.73l8.79-8.26L63,81.74a2,2,0,0,0,2,0l12.68-7.25,7.83,7.84v10.8L73,100.26A2,2,0,0,0,72,102v16a2,2,0,0,0,1,1.74l14,8a2,2,0,0,0,2,0l14-8a2,2,0,0,0,1-1.74V102a2,2,0,0,0-1-1.74L89.5,92.55V82.73l8.79-8.26L111,81.74a2,2,0,0,0,2,0l14-8A2,2,0,0,0,128,72V56A2,2,0,0,0,127,54.26ZM112,6a4,4,0,1,1-4,4A4,4,0,0,1,112,6ZM55.5,14.5a2,2,0,0,1,1-1.76L63,9.24a2,2,0,0,1,1.9,0l6.5,3.5a2,2,0,0,1,1,1.76v7a2,2,0,0,1-1,1.76L65,26.76a2,2,0,0,1-1.9,0l-6.5-3.5a2,2,0,0,1-1-1.76ZM12,10a4,4,0,1,1,4,4A4,4,0,0,1,12,10ZM24.5,67.5a2,2,0,0,1-1,1.76L17,72.76a2,2,0,0,1-1.9,0l-6.5-3.5a2,2,0,0,1-1-1.76v-7a2,2,0,0,1,1-1.76l6.5-3.5a2,2,0,0,1,1.9,0l6.5,3.5a2,2,0,0,1,1,1.76Zm23,37.24a2,2,0,0,1,1,1.76v7a2,2,0,0,1-1,1.76l-6.5,3.5a2,2,0,0,1-1.9,0l-6.5-3.5a2,2,0,0,1-1-1.76v-7a2,2,0,0,1,1-1.76l6.5-3.5a2,2,0,0,1,1.9,0ZM49,54.26A2,2,0,0,0,48,56V71.13L39.73,78.9,32,71.17V56a2,2,0,0,0-1-1.74L18,46.84V17.74A8.05,8.05,0,0,0,23.74,12H48V26a2,2,0,0,0,1,1.74l13,7.42V46.84ZM72.5,67.5a2,2,0,0,1-1,1.76L65,72.76a2,2,0,0,1-1.9,0l-6.5-3.5a2,2,0,0,1-1-1.76v-7a2,2,0,0,1,1-1.76l6.5-3.5a2,2,0,0,1,1.9,0l6.5,3.5a2,2,0,0,1,1,1.76Zm23,37.24a2,2,0,0,1,1,1.76v7a2,2,0,0,1-1,1.76l-6.5,3.5a2,2,0,0,1-1.9,0l-6.5-3.5a2,2,0,0,1-1-1.76v-7a2,2,0,0,1,1-1.76l6.5-3.5a2,2,0,0,1,1.9,0ZM97,54.26A2,2,0,0,0,96,56V71.13L87.73,78.9,80,71.17V56a2,2,0,0,0-1-1.74L66,46.84V35.16l13-7.42A2,2,0,0,0,80,26V12h24.26A8.05,8.05,0,0,0,110,17.74v29.1ZM120.5,67.5a2,2,0,0,1-1,1.76l-6.5,3.5a2,2,0,0,1-1.9,0l-6.5-3.5a2,2,0,0,1-1-1.76v-7a2,2,0,0,1,1-1.76l6.5-3.5a2,2,0,0,1,1.9,0l6.5,3.5a2,2,0,0,1,1,1.76Z"></path></svg></g></g></svg>
